<mxfile host="app.diagrams.net" agent="Mozilla/5.0 (Windows NT 10.0; Win64; x64; rv:144.0) Gecko/20100101 Firefox/144.0" version="28.2.8">
  <diagram name="第 1 页" id="OCM9zwl7UEkzbrnkHxlr">
    <mxGraphModel dx="1426" dy="759" grid="1" gridSize="10" guides="1" tooltips="1" connect="1" arrows="1" fold="1" page="1" pageScale="1" pageWidth="827" pageHeight="1169" math="0" shadow="0">
      <root>
        <mxCell id="0" />
        <mxCell id="1" parent="0" />
        <mxCell id="h19mBmi42310W65S8yJa-3" style="edgeStyle=orthogonalEdgeStyle;rounded=0;orthogonalLoop=1;jettySize=auto;html=1;" edge="1" parent="1" source="h19mBmi42310W65S8yJa-1" target="h19mBmi42310W65S8yJa-2">
          <mxGeometry relative="1" as="geometry" />
        </mxCell>
        <mxCell id="h19mBmi42310W65S8yJa-4" value="By Code 15" style="edgeLabel;html=1;align=center;verticalAlign=middle;resizable=0;points=[];" vertex="1" connectable="0" parent="h19mBmi42310W65S8yJa-3">
          <mxGeometry x="0.0167" y="-2" relative="1" as="geometry">
            <mxPoint x="-1" y="-2" as="offset" />
          </mxGeometry>
        </mxCell>
        <mxCell id="h19mBmi42310W65S8yJa-1" value="Read IFC&amp;nbsp;" style="rounded=1;whiteSpace=wrap;html=1;" vertex="1" parent="1">
          <mxGeometry x="160" y="220" width="120" height="60" as="geometry" />
        </mxCell>
        <mxCell id="h19mBmi42310W65S8yJa-6" style="edgeStyle=orthogonalEdgeStyle;rounded=0;orthogonalLoop=1;jettySize=auto;html=1;" edge="1" parent="1" source="h19mBmi42310W65S8yJa-2" target="h19mBmi42310W65S8yJa-5">
          <mxGeometry relative="1" as="geometry" />
        </mxCell>
        <mxCell id="h19mBmi42310W65S8yJa-2" value="IFC entity" style="rounded=1;whiteSpace=wrap;html=1;" vertex="1" parent="1">
          <mxGeometry x="420" y="220" width="120" height="60" as="geometry" />
        </mxCell>
        <mxCell id="h19mBmi42310W65S8yJa-8" style="edgeStyle=orthogonalEdgeStyle;rounded=0;orthogonalLoop=1;jettySize=auto;html=1;" edge="1" parent="1" source="h19mBmi42310W65S8yJa-5" target="h19mBmi42310W65S8yJa-7">
          <mxGeometry relative="1" as="geometry" />
        </mxCell>
        <mxCell id="h19mBmi42310W65S8yJa-5" value="entity uuid" style="rounded=1;whiteSpace=wrap;html=1;" vertex="1" parent="1">
          <mxGeometry x="650" y="220" width="120" height="60" as="geometry" />
        </mxCell>
        <mxCell id="h19mBmi42310W65S8yJa-12" style="edgeStyle=orthogonalEdgeStyle;rounded=0;orthogonalLoop=1;jettySize=auto;html=1;" edge="1" parent="1" source="h19mBmi42310W65S8yJa-7" target="h19mBmi42310W65S8yJa-11">
          <mxGeometry relative="1" as="geometry" />
        </mxCell>
        <mxCell id="h19mBmi42310W65S8yJa-7" value="entity uuid" style="rounded=1;whiteSpace=wrap;html=1;" vertex="1" parent="1">
          <mxGeometry x="650" y="340" width="120" height="60" as="geometry" />
        </mxCell>
        <mxCell id="h19mBmi42310W65S8yJa-9" value="Price Date URI as Object" style="rounded=1;whiteSpace=wrap;html=1;" vertex="1" parent="1">
          <mxGeometry x="170" y="440" width="120" height="60" as="geometry" />
        </mxCell>
        <mxCell id="h19mBmi42310W65S8yJa-14" style="edgeStyle=orthogonalEdgeStyle;rounded=0;orthogonalLoop=1;jettySize=auto;html=1;" edge="1" parent="1" source="h19mBmi42310W65S8yJa-10" target="h19mBmi42310W65S8yJa-9">
          <mxGeometry relative="1" as="geometry" />
        </mxCell>
        <mxCell id="h19mBmi42310W65S8yJa-10" value="Predicate:hasPrice" style="rounded=1;whiteSpace=wrap;html=1;" vertex="1" parent="1">
          <mxGeometry x="410" y="440" width="120" height="60" as="geometry" />
        </mxCell>
        <mxCell id="h19mBmi42310W65S8yJa-13" style="edgeStyle=orthogonalEdgeStyle;rounded=0;orthogonalLoop=1;jettySize=auto;html=1;" edge="1" parent="1" source="h19mBmi42310W65S8yJa-11" target="h19mBmi42310W65S8yJa-10">
          <mxGeometry relative="1" as="geometry" />
        </mxCell>
        <mxCell id="h19mBmi42310W65S8yJa-11" value="As Subject" style="rounded=1;whiteSpace=wrap;html=1;" vertex="1" parent="1">
          <mxGeometry x="650" y="440" width="120" height="60" as="geometry" />
        </mxCell>
      </root>
    </mxGraphModel>
  </diagram>
</mxfile>
